<svg xmlns="http://www.w3.org/2000/svg" width="512" height="512" viewBox="0 0 512 512" version="1.1">
	<path d="M 248.856 1.978 C 247.951 2.974, 245.251 4.112, 242.856 4.507 C 237.862 5.331, 236 6.532, 236 8.928 C 236 9.854, 234.875 12.136, 233.500 14 C 230.436 18.153, 230.283 22.819, 233.094 26.392 C 234.245 27.856, 235.506 30.245, 235.895 31.700 C 236.284 33.156, 237.255 34.671, 238.051 35.067 C 238.848 35.462, 240.625 36.306, 242 36.942 C 243.375 37.578, 245.731 38.772, 247.236 39.597 C 251.405 41.881, 255.844 40.517, 262.049 35.047 L 267.500 30.240 267.500 20.793 C 267.500 11.562, 267.429 11.275, 264.400 8.247 C 262.610 6.456, 259.730 4.852, 257.581 4.449 C 255.536 4.065, 253.335 2.907, 252.690 1.876 C 251.288 -0.370, 250.980 -0.362, 248.856 1.978 M 167.765 34.750 C 162.251 38.972, 159.379 43.021, 158.009 48.500 C 154.821 61.259, 158.984 73.111, 168.788 79.183 C 172.010 81.178, 173.773 81.475, 182.130 81.430 C 193.107 81.372, 193.653 81.084, 202.979 70.427 L 208 64.689 208 56.511 L 208 48.333 200.413 40.166 L 192.827 32 182.091 32 C 171.918 32, 171.168 32.144, 167.765 34.750 M 98 104.674 C 97.175 105.017, 95.427 106.131, 94.115 107.149 C 92.803 108.167, 90.897 109, 89.879 109 C 87.315 109, 74.588 119.402, 71.795 123.780 C 67.351 130.746, 67.029 131.536, 67.015 135.527 C 67.007 137.743, 66.392 140.443, 65.649 141.527 C 63.046 145.328, 62.848 148.869, 64.971 153.667 C 66.087 156.190, 67.007 159.660, 67.015 161.377 C 67.023 163.095, 67.679 165.625, 68.472 167 C 69.265 168.375, 70.409 170.625, 71.013 172 C 72.940 176.385, 82.146 184.937, 85.645 185.593 C 87.418 185.926, 89.643 187.053, 90.590 188.099 C 91.536 189.145, 93.253 190.002, 94.405 190.004 C 95.557 190.006, 97.973 190.906, 99.774 192.004 C 104.195 194.699, 112.427 194.697, 116.500 192 C 118.150 190.907, 120.668 190.010, 122.095 190.007 C 123.522 190.003, 125.458 189.152, 126.396 188.115 C 127.334 187.078, 129.322 185.986, 130.813 185.687 C 134.455 184.959, 142.844 176.529, 145.052 171.378 C 146.032 169.091, 147.322 166.919, 147.917 166.551 C 148.513 166.183, 149 164.844, 149 163.576 C 149 162.307, 149.975 160.030, 151.167 158.515 C 152.936 156.266, 153.333 154.432, 153.333 148.518 C 153.333 142.835, 152.867 140.520, 151.167 137.770 C 149.975 135.842, 149 133.263, 149 132.040 C 149 130.817, 148.081 128.620, 146.958 127.158 C 145.835 125.696, 143.442 122.271, 141.641 119.546 C 139.396 116.150, 137.419 114.347, 135.352 113.811 C 133.694 113.382, 131.517 112.123, 130.514 111.015 C 129.511 109.907, 127.920 109, 126.980 109 C 126.039 109, 123.993 107.995, 122.432 106.768 C 119.985 104.843, 118.210 104.502, 109.547 104.292 C 104.021 104.158, 98.825 104.330, 98 104.674 M 73.794 235.490 C 70.106 237.971, 66.690 240, 66.203 240 C 64.930 240, 53 252.608, 53 253.954 C 53 255.061, 50.124 259.561, 46.898 263.500 C 43.307 267.885, 43.514 303.980, 47.153 308.177 C 48.169 309.348, 49 311.202, 49 312.298 C 49 315.085, 68.734 335, 71.496 335 C 72.659 335, 75.136 336.125, 77 337.500 C 79.333 339.221, 81.682 340, 84.539 340 C 87.420 340, 89.244 340.612, 90.500 342 C 91.966 343.620, 93.580 344, 99 344 C 104.420 344, 106.034 343.620, 107.500 342 C 108.830 340.530, 110.580 340, 114.103 340 C 117.831 340, 119.497 339.444, 121.595 337.500 C 123.078 336.125, 125.281 335, 126.489 335 C 129.723 335, 147.676 316.832, 148.930 312.290 C 149.461 310.369, 150.706 308.205, 151.697 307.481 C 153.277 306.328, 153.540 304.206, 153.825 290.333 C 154.240 270.125, 153.835 267.633, 149.128 261.413 C 147.027 258.638, 145.023 255.227, 144.673 253.832 C 143.947 250.941, 133.355 240, 131.282 240 C 130.530 240, 127.346 238.088, 124.207 235.750 L 118.500 231.500 99.500 231.240 L 80.500 230.980 73.794 235.490 M 177 369.500 C 175.136 370.875, 172.644 372, 171.461 372 C 170.278 372, 168.495 372.900, 167.500 374 C 166.505 375.100, 164.658 376, 163.397 376 C 162.135 376, 159.889 377.125, 158.405 378.500 C 156.922 379.875, 155.065 381, 154.280 381 C 152.475 381, 141 391.867, 141 393.575 C 141 394.275, 139.934 396.119, 138.631 397.673 C 137.328 399.228, 134.065 404.550, 131.381 409.500 L 126.500 418.500 126.500 441.170 C 126.500 463.303, 126.553 463.896, 128.750 466.234 C 129.988 467.551, 131 469.327, 131 470.180 C 131 471.032, 131.834 472.803, 132.852 474.115 C 133.871 475.427, 135.534 478.265, 136.548 480.423 C 139.767 487.272, 149.250 496.348, 158.946 501.861 C 163.844 504.646, 169.022 507.218, 170.452 507.577 C 171.883 507.936, 173.507 509.078, 174.062 510.115 C 175.006 511.879, 176.569 512, 198.419 512 C 220.744 512, 221.789 511.914, 222.278 510.046 C 222.567 508.941, 224.030 507.788, 225.644 507.393 C 227.215 507.009, 229.573 505.864, 230.885 504.848 C 232.197 503.831, 234.172 503, 235.275 503 C 236.466 503, 241.314 499.040, 247.212 493.250 C 259.664 481.026, 266.332 470.067, 267.341 460.166 C 267.753 456.125, 268.713 452.909, 269.993 451.281 C 272.944 447.530, 272.927 432.448, 269.967 428.686 C 268.704 427.080, 267.642 423.667, 267.161 419.673 C 266.699 415.841, 265.703 412.560, 264.693 411.551 C 263.762 410.619, 263 408.843, 263 407.603 C 263 406.363, 261.875 404.292, 260.500 403 C 259.125 401.708, 258 399.707, 258 398.552 C 258 396.014, 243.641 381.546, 240.058 380.474 C 238.716 380.072, 235.413 378.001, 232.719 375.872 C 230.025 373.742, 226.803 372, 225.559 372 C 224.315 372, 221.182 370.875, 218.596 369.500 C 214.120 367.120, 213.091 367, 197.141 367 C 180.842 367, 180.297 367.068, 177 369.500" stroke="none" fill="black" fill-rule="evenodd"/>
</svg>